<svg width="14" height="15" viewBox="0 0 14 15" fill="none" xmlns="http://www.w3.org/2000/svg">
<path d="M3.38505 9.98772C2.44187 10.5493 -0.0310903 11.6961 1.47511 13.131C2.21087 13.832 3.03033 14.3333 4.06058 14.3333H9.93942C10.9697 14.3333 11.7891 13.832 12.5249 13.131C14.0311 11.6961 11.5581 10.5493 10.615 9.98772C8.40321 8.67076 5.59679 8.67076 3.38505 9.98772Z" stroke="currentColor" stroke-linecap="round" stroke-linejoin="round"/>
<path d="M3.38505 9.98772C2.44187 10.5493 -0.0310903 11.6961 1.47511 13.131C2.21087 13.832 3.03033 14.3333 4.06058 14.3333H9.93942C10.9697 14.3333 11.7891 13.832 12.5249 13.131C14.0311 11.6961 11.5581 10.5493 10.615 9.98772C8.40321 8.67076 5.59679 8.67076 3.38505 9.98772Z" stroke="currentColor" stroke-linecap="round" stroke-linejoin="round"/>
<path d="M10 4C10 5.65685 8.65685 7 7 7C5.34315 7 4 5.65685 4 4C4 2.34315 5.34315 1 7 1C8.65685 1 10 2.34315 10 4Z" stroke="currentColor"/>
</svg>
