<svg width="16" height="16" viewBox="0 0 16 16" fill="none" xmlns="http://www.w3.org/2000/svg">
<path d="M7.33594 13.3337H7.0026C4.49689 13.3337 3.24403 13.3337 2.40757 12.6731C2.27379 12.5674 2.15006 12.451 2.0378 12.3251C1.33594 11.5378 1.33594 10.3586 1.33594 8.00033C1.33594 5.642 1.33594 4.46284 2.0378 3.67559C2.15006 3.54968 2.27379 3.43323 2.40757 3.32757C3.24403 2.66699 4.49689 2.66699 7.0026 2.66699H9.0026C11.5083 2.66699 12.7612 2.66699 13.5976 3.32757C13.7314 3.43323 13.8551 3.54968 13.9674 3.67559C14.5998 4.38488 14.6624 5.41232 14.6686 7.33366" stroke="currentColor" stroke-linecap="round" stroke-linejoin="round"/>
<path d="M1.33594 6H14.6693" stroke="currentColor" stroke-linejoin="round"/>
<path d="M9.33594 11.9997C9.33594 11.9997 10.0026 11.9997 10.6693 13.333C10.6693 13.333 12.7869 9.99967 14.6693 9.33301" stroke="currentColor" stroke-linecap="round" stroke-linejoin="round"/>
</svg>
