<svg width="16" height="16" viewBox="0 0 16 16" fill="none" xmlns="http://www.w3.org/2000/svg">
<path d="M1.66406 8.00033C1.66406 5.01476 1.66406 3.52198 2.59156 2.59449C3.51905 1.66699 5.01183 1.66699 7.9974 1.66699C10.983 1.66699 12.4757 1.66699 13.4032 2.59449C14.3307 3.52198 14.3307 5.01476 14.3307 8.00033C14.3307 10.9859 14.3307 12.4787 13.4032 13.4062C12.4757 14.3337 10.983 14.3337 7.9974 14.3337C5.01183 14.3337 3.51905 14.3337 2.59156 13.4062C1.66406 12.4787 1.66406 10.9859 1.66406 8.00033Z" stroke="currentColor" stroke-linejoin="round"/>
<path d="M5.66406 6.66699C5.11178 6.66699 4.66406 6.21928 4.66406 5.66699C4.66406 5.11471 5.11178 4.66699 5.66406 4.66699C6.21635 4.66699 6.66406 5.11471 6.66406 5.66699C6.66406 6.21928 6.21635 6.66699 5.66406 6.66699Z" stroke="currentColor"/>
<path d="M10.3359 11.333C10.8882 11.333 11.3359 10.8853 11.3359 10.333C11.3359 9.78072 10.8882 9.33301 10.3359 9.33301C9.78365 9.33301 9.33594 9.78072 9.33594 10.333C9.33594 10.8853 9.78365 11.333 10.3359 11.333Z" stroke="currentColor"/>
<path d="M6.66927 5.66699L11.3359 5.66699" stroke="currentColor" stroke-linecap="round"/>
<path d="M9.33073 10.333L4.66406 10.333" stroke="currentColor" stroke-linecap="round"/>
</svg>
