<svg width="16" height="16" viewBox="0 0 16 16" fill="none" xmlns="http://www.w3.org/2000/svg">
<path d="M7.0026 13.3333H9.0026C11.5083 13.3333 12.7612 13.3333 13.5976 12.6728C13.7314 12.5671 13.8551 12.4506 13.9674 12.3247C14.6693 11.5375 14.6693 10.3583 14.6693 8C14.6693 7.21125 14.6693 6.5544 14.643 6H1.3622C1.33594 6.5544 1.33594 7.21125 1.33594 8C1.33594 10.3583 1.33594 11.5375 2.0378 12.3247C2.15006 12.4506 2.27379 12.5671 2.40757 12.6728C3.24403 13.3333 4.49689 13.3333 7.0026 13.3333Z" stroke="#808080" stroke-linecap="round" stroke-linejoin="round"/>
<path d="M1.33594 8.00033C1.33594 5.642 1.33594 4.46284 2.0378 3.67559C2.15006 3.54968 2.27379 3.43323 2.40757 3.32757C3.24403 2.66699 4.49689 2.66699 7.0026 2.66699H9.0026C11.5083 2.66699 12.7612 2.66699 13.5976 3.32757C13.7314 3.43323 13.8551 3.54968 13.9674 3.67559C14.6693 4.46284 14.6693 5.642 14.6693 8.00033C14.6693 10.3586 14.6693 11.5378 13.9674 12.3251C13.8551 12.451 13.7314 12.5674 13.5976 12.6731C12.7612 13.3337 11.5083 13.3337 9.0026 13.3337H7.0026C4.49689 13.3337 3.24403 13.3337 2.40757 12.6731C2.27379 12.5674 2.15006 12.451 2.0378 12.3251C1.33594 11.5378 1.33594 10.3586 1.33594 8.00033Z" stroke="currentColor" stroke-linecap="round" stroke-linejoin="round"/>
<path d="M6.66406 10.667H7.66406" stroke="currentColor" stroke-miterlimit="10" stroke-linecap="round" stroke-linejoin="round"/>
<path d="M9.66406 10.667L11.9974 10.667" stroke="currentColor" stroke-miterlimit="10" stroke-linecap="round" stroke-linejoin="round"/>
<path d="M1.33594 6H14.6693" stroke="currentColor" stroke-linejoin="round"/>
</svg>
