<svg width="16" height="16" viewBox="0 0 16 16" fill="none" xmlns="http://www.w3.org/2000/svg">
<g clip-path="url(#clip0_5545_23134)">
<path d="M1.97582 10.3777C1.78056 10.573 1.78056 10.8896 1.97582 11.0848C2.17108 11.2801 2.48766 11.2801 2.68293 11.0848L1.97582 10.3777ZM7.40544 14.6479L7.3471 14.1513L7.3471 14.1513L7.40544 14.6479ZM6.94068 14.662L6.9693 14.1628L6.9693 14.1628L6.94068 14.662ZM14.6649 6.93775L14.1658 6.96637L14.1658 6.96637L14.6649 6.93775ZM14.6509 7.40251L14.1543 7.34417L14.1543 7.34417L14.6509 7.40251ZM5.19683 3.89892L4.84327 3.54537L4.84327 3.54537L5.19683 3.89892ZM8.59977 1.35142L8.6581 1.848L8.6581 1.848L8.59977 1.35142ZM9.06453 1.33734L9.0359 1.83652L9.0359 1.83652L9.06453 1.33734ZM3.90185 5.1939L4.25541 5.54745L4.25541 5.54745L3.90185 5.1939ZM1.35435 8.59684L1.85093 8.65518L1.85093 8.65518L1.35435 8.59684ZM1.34027 9.0616L1.83945 9.03297L1.83945 9.03297L1.34027 9.0616ZM2.32937 10.7313L2.68293 11.0848L11.0877 2.68004L10.7342 2.32649L10.3806 1.97294L1.97582 10.3777L2.32937 10.7313ZM3.90185 5.1939L4.25541 5.54745L5.55038 4.25248L5.19683 3.89892L4.84327 3.54537L3.5483 4.84034L3.90185 5.1939ZM12.1034 10.8055L11.7498 10.4519L10.4548 11.7469L10.8084 12.1004L11.1619 12.454L12.4569 11.159L12.1034 10.8055ZM10.8084 12.1004L10.4548 11.7469C9.63532 12.5664 9.0499 13.1507 8.55036 13.5489C8.05805 13.9412 7.70011 14.1099 7.3471 14.1513L7.40544 14.6479L7.46378 15.1445C8.08008 15.0721 8.6124 14.7782 9.17363 14.3309C9.72763 13.8893 10.359 13.2569 11.1619 12.454L10.8084 12.1004ZM3.68602 12.3163L3.33247 12.6698C4.08662 13.424 4.68509 14.0238 5.21841 14.4365C5.76277 14.8577 6.29017 15.1255 6.91206 15.1612L6.94068 14.662L6.9693 14.1628C6.62701 14.1432 6.29058 14.0017 5.83039 13.6456C5.35918 13.281 4.81241 12.7355 4.03958 11.9627L3.68602 12.3163ZM7.40544 14.6479L7.3471 14.1513C7.22062 14.1662 7.09421 14.17 6.9693 14.1628L6.94068 14.662L6.91206 15.1612C7.09559 15.1717 7.2802 15.1661 7.46378 15.1445L7.40544 14.6479ZM12.3192 3.68309L11.9656 4.03665C12.7385 4.80948 13.2839 5.35625 13.6485 5.82746C14.0046 6.28765 14.1461 6.62408 14.1658 6.96637L14.6649 6.93775L15.1641 6.90913C15.1285 6.28724 14.8606 5.75984 14.4394 5.21548C14.0267 4.68216 13.4269 4.08369 12.6727 3.32954L12.3192 3.68309ZM12.1034 10.8055L12.4569 11.159C13.2598 10.3561 13.8923 9.7247 14.3338 9.1707C14.7811 8.60947 15.075 8.07715 15.1474 7.46085L14.6509 7.40251L14.1543 7.34417C14.1128 7.69718 13.9442 8.05513 13.5518 8.54743C13.1537 9.04697 12.5693 9.63239 11.7498 10.4519L12.1034 10.8055ZM14.6649 6.93775L14.1658 6.96637C14.1729 7.09128 14.1691 7.21769 14.1543 7.34417L14.6509 7.40251L15.1474 7.46085C15.169 7.27727 15.1746 7.09266 15.1641 6.90913L14.6649 6.93775ZM5.19683 3.89892L5.55038 4.25248C6.36989 3.43297 6.95531 2.84861 7.45485 2.45047C7.94715 2.0581 8.3051 1.88948 8.6581 1.848L8.59977 1.35142L8.54143 0.854835C7.92512 0.927238 7.39281 1.22116 6.83158 1.66846C6.27758 2.11001 5.64618 2.74246 4.84327 3.54537L5.19683 3.89892ZM12.3192 3.68309L12.6727 3.32954C11.9186 2.57539 11.3201 1.97558 10.7868 1.56289C10.2424 1.14167 9.71504 0.873813 9.09315 0.838156L9.06453 1.33734L9.0359 1.83652C9.3782 1.85614 9.71463 1.99767 10.1748 2.35376C10.646 2.71839 11.1928 3.26381 11.9656 4.03665L12.3192 3.68309ZM8.59977 1.35142L8.6581 1.848C8.78459 1.83315 8.911 1.82935 9.0359 1.83652L9.06453 1.33734L9.09315 0.838156C8.90962 0.827632 8.72501 0.833267 8.54143 0.854835L8.59977 1.35142ZM3.90185 5.1939L3.5483 4.84034C2.74539 5.64326 2.11294 6.27465 1.67139 6.82865C1.22409 7.38988 0.930168 7.9222 0.857764 8.5385L1.35435 8.59684L1.85093 8.65518C1.89241 8.30217 2.06103 7.94422 2.4534 7.45192C2.85154 6.95238 3.4359 6.36696 4.25541 5.54745L3.90185 5.1939ZM3.68602 12.3163L4.03958 11.9627C3.26674 11.1899 2.72132 10.6431 2.35669 10.1719C2.0006 9.7117 1.85907 9.37527 1.83945 9.03297L1.34027 9.0616L0.841085 9.09022C0.876743 9.71211 1.1446 10.2395 1.56582 10.7839C1.97851 11.3172 2.57832 11.9157 3.33247 12.6698L3.68602 12.3163ZM1.35435 8.59684L0.857764 8.5385C0.836197 8.72208 0.830562 8.90669 0.841085 9.09022L1.34027 9.0616L1.83945 9.03297C1.83228 8.90807 1.83607 8.78166 1.85093 8.65518L1.35435 8.59684Z" fill="currentColor"/>
<path d="M8.69332 10.3785C8.49806 10.5737 8.49806 10.8903 8.69332 11.0856C8.88858 11.2808 9.20517 11.2808 9.40043 11.0856L8.69332 10.3785ZM10.0308 10.4552C10.2261 10.26 10.2261 9.94338 10.0308 9.74812C9.83553 9.55286 9.51894 9.55286 9.32368 9.74812L10.0308 10.4552ZM10.5844 8.4874C10.3891 8.68266 10.3891 8.99925 10.5844 9.19451C10.7797 9.38977 11.0962 9.38977 11.2915 9.19451L10.5844 8.4874ZM12.7623 7.72367C12.9576 7.52841 12.9576 7.21183 12.7623 7.01656C12.5671 6.8213 12.2505 6.8213 12.0552 7.01656L12.7623 7.72367ZM9.04688 10.732L9.40043 11.0856L10.0308 10.4552L9.67723 10.1017L9.32368 9.74812L8.69332 10.3785L9.04688 10.732ZM10.938 8.84096L11.2915 9.19451L12.7623 7.72367L12.4088 7.37012L12.0552 7.01656L10.5844 8.4874L10.938 8.84096Z" fill="currentColor"/>
<path d="M2.66406 14.667H13.3307" stroke="currentColor" stroke-linecap="round"/>
</g>
<defs>
<clipPath id="clip0_5545_23134">
<rect width="16" height="16" fill="white"/>
</clipPath>
</defs>
</svg>
