<svg width="16" height="16" viewBox="0 0 16 16" fill="none" xmlns="http://www.w3.org/2000/svg">
<g clip-path="url(#clip0_5545_23177)">
<path d="M6.00085 14.6667L5.83376 12.3274C5.74393 11.0697 6.73999 10 8.00085 10C9.26171 10 10.2578 11.0697 10.1679 12.3274L10.0008 14.6667" stroke="currentColor"/>
<path d="M1.5702 8.80962C1.33485 7.27815 1.21718 6.51241 1.50671 5.83357C1.79625 5.15473 2.43862 4.69027 3.72336 3.76136L4.68326 3.06732C6.28146 1.91176 7.08056 1.33398 8.0026 1.33398C8.92464 1.33398 9.72374 1.91176 11.3219 3.06732L12.2818 3.76136C13.5666 4.69027 14.209 5.15473 14.4985 5.83357C14.788 6.51241 14.6704 7.27814 14.435 8.80962L14.2343 10.1156C13.9007 12.2866 13.7339 13.3721 12.9553 14.0197C12.1767 14.6673 11.0384 14.6673 8.76181 14.6673H7.24339C4.96683 14.6673 3.82854 14.6673 3.04994 14.0197C2.27133 13.3721 2.10452 12.2866 1.77089 10.1156L1.5702 8.80962Z" stroke="currentColor" stroke-linejoin="round"/>
</g>
<defs>
<clipPath id="clip0_5545_23177">
<rect width="16" height="16" fill="white"/>
</clipPath>
</defs>
</svg>
