<svg width="16" height="16" viewBox="0 0 16 16" fill="none" xmlns="http://www.w3.org/2000/svg">
<g clip-path="url(#clip0_5545_23163)">
<path d="M1.33594 8.00037L7.76409 11.2144C7.85155 11.2582 7.89527 11.28 7.94114 11.2886C7.98176 11.2963 8.02345 11.2963 8.06407 11.2886C8.10994 11.28 8.15366 11.2582 8.24112 11.2144L14.6693 8.00037M1.33594 11.3337L7.76409 14.5478C7.85155 14.5915 7.89527 14.6134 7.94114 14.622C7.98176 14.6296 8.02345 14.6296 8.06407 14.622C8.10994 14.6134 8.15366 14.5915 8.24112 14.5478L14.6693 11.3337M1.33594 4.66704L7.76409 1.45296C7.85155 1.40923 7.89527 1.38737 7.94114 1.37876C7.98176 1.37114 8.02345 1.37114 8.06407 1.37876C8.10994 1.38737 8.15366 1.40923 8.24112 1.45296L14.6693 4.66704L8.24112 7.88111C8.15366 7.92484 8.10994 7.9467 8.06407 7.95531C8.02345 7.96293 7.98176 7.96293 7.94114 7.95531C7.89527 7.9467 7.85155 7.92484 7.76409 7.88111L1.33594 4.66704Z" stroke="currentColor" stroke-linecap="round" stroke-linejoin="round"/>
</g>
<defs>
<clipPath id="clip0_5545_23163">
<rect width="16" height="16" fill="white"/>
</clipPath>
</defs>
</svg>
