<svg width="16" height="16" viewBox="0 0 16 16" fill="none" xmlns="http://www.w3.org/2000/svg">
<g clip-path="url(#clip0_5545_23116)">
<path d="M8.0026 9.36408C6.53107 9.22658 5.02299 9.54546 3.72099 10.3207C2.77781 10.8823 0.304847 12.0291 1.81105 13.4641C2.54681 14.165 3.36626 14.6663 4.39652 14.6663H8.66927" stroke="currentColor" stroke-linecap="round" stroke-linejoin="round"/>
<path d="M10.3359 4.33301C10.3359 5.98986 8.99279 7.33301 7.33594 7.33301C5.67908 7.33301 4.33594 5.98986 4.33594 4.33301C4.33594 2.67615 5.67908 1.33301 7.33594 1.33301C8.99279 1.33301 10.3359 2.67615 10.3359 4.33301Z" stroke="currentColor"/>
<path d="M12.0021 9.33301C11.1578 9.33301 10.6104 9.87141 9.96294 10.0676C9.6997 10.1474 9.56807 10.1873 9.5148 10.2436C9.46153 10.2998 9.44593 10.382 9.41474 10.5464C9.0809 12.3053 9.81058 13.9314 11.5508 14.5643C11.7377 14.6323 11.8312 14.6663 12.003 14.6663C12.1748 14.6663 12.2683 14.6323 12.4553 14.5643C14.1953 13.9314 14.9243 12.3053 14.5904 10.5464C14.5592 10.382 14.5436 10.2998 14.4903 10.2435C14.437 10.1873 14.3054 10.1474 14.0422 10.0677C13.3945 9.87145 12.8464 9.33301 12.0021 9.33301Z" stroke="currentColor" stroke-linecap="round" stroke-linejoin="round"/>
</g>
<defs>
<clipPath id="clip0_5545_23116">
<rect width="16" height="16" fill="white"/>
</clipPath>
</defs>
</svg>
