<svg width="16" height="16" viewBox="0 0 16 16" fill="none" xmlns="http://www.w3.org/2000/svg">
<g clip-path="url(#clip0_5545_23146)">
<path d="M2.66406 10L2.66406 12.6667" stroke="currentColor" stroke-linecap="round" stroke-linejoin="round"/>
<path d="M8 6L8 12.6667" stroke="currentColor" stroke-linecap="round" stroke-linejoin="round"/>
<path d="M14.6641 14.667L1.33073 14.667" stroke="currentColor" stroke-linecap="round" stroke-linejoin="round"/>
<path d="M13.3281 8.66699L13.3281 12.667" stroke="currentColor" stroke-linecap="round" stroke-linejoin="round"/>
<path d="M3.72819 5.86629C3.48493 5.54247 3.09766 5.33301 2.66146 5.33301C1.92508 5.33301 1.32813 5.92996 1.32812 6.66634C1.32812 7.40272 1.92508 7.99967 2.66146 7.99967C3.39784 7.99967 3.99479 7.40272 3.99479 6.66634C3.99479 6.36616 3.89559 6.08914 3.72819 5.86629ZM3.72819 5.86629L6.92806 3.46639M6.92806 3.46639C7.17132 3.79021 7.55859 3.99967 7.99479 3.99967C8.51679 3.99967 8.96872 3.69971 9.18762 3.26276M6.92806 3.46639C6.76066 3.24354 6.66146 2.96652 6.66146 2.66634C6.66146 1.92996 7.25841 1.33301 7.99479 1.33301C8.73117 1.33301 9.32813 1.92996 9.32813 2.66634C9.32813 2.88073 9.27753 3.0833 9.18762 3.26276M9.18762 3.26276L12.1353 4.73659M12.1353 4.73659C12.0454 4.91605 11.9948 5.11862 11.9948 5.33301C11.9948 6.06939 12.5917 6.66634 13.3281 6.66634C14.0645 6.66634 14.6615 6.06939 14.6615 5.33301C14.6615 4.59663 14.0645 3.99967 13.3281 3.99967C12.8061 3.99967 12.3542 4.29964 12.1353 4.73659Z" stroke="currentColor"/>
</g>
<defs>
<clipPath id="clip0_5545_23146">
<rect width="16" height="16" fill="white"/>
</clipPath>
</defs>
</svg>
