<svg width="16" height="16" viewBox="0 0 16 16" fill="none" xmlns="http://www.w3.org/2000/svg">
<path d="M13.8494 12C14.3489 12 14.7462 11.6856 15.103 11.2461C15.8333 10.3463 14.6342 9.62723 14.1769 9.27507C13.712 8.91708 13.1929 8.71428 12.6667 8.66667M12 7.33333C12.9205 7.33333 13.6667 6.58714 13.6667 5.66667C13.6667 4.74619 12.9205 4 12 4" stroke="currentColor" stroke-linecap="round"/>
<path d="M2.14803 12C1.6485 12 1.25117 11.6856 0.894426 11.2461C0.164122 10.3463 1.36318 9.62723 1.82049 9.27507C2.28538 8.91708 2.80445 8.71428 3.33073 8.66667M3.66406 7.33333C2.74359 7.33333 1.9974 6.58714 1.9974 5.66667C1.9974 4.74619 2.74359 4 3.66406 4" stroke="currentColor" stroke-linecap="round"/>
<path d="M5.3866 10.0738C4.70541 10.495 2.91939 11.3551 4.0072 12.4313C4.53858 12.957 5.13041 13.333 5.87448 13.333H10.1203C10.8644 13.333 11.4562 12.957 11.9876 12.4313C13.0754 11.3551 11.2894 10.495 10.6082 10.0738C9.01082 9.08608 6.98397 9.08608 5.3866 10.0738Z" stroke="currentColor" stroke-linecap="round" stroke-linejoin="round"/>
<path d="M10.3307 5.00033C10.3307 6.28899 9.28606 7.33366 7.9974 7.33366C6.70873 7.33366 5.66406 6.28899 5.66406 5.00033C5.66406 3.71166 6.70873 2.66699 7.9974 2.66699C9.28606 2.66699 10.3307 3.71166 10.3307 5.00033Z" stroke="currentColor"/>
</svg>
