<svg width="16" height="16" viewBox="0 0 16 16" fill="none" xmlns="http://www.w3.org/2000/svg">
<path d="M4.0026 7.33366V10.0003M12.0026 6.00032V8.66699M11.3359 2.66699C12.9684 2.66699 13.8514 2.91683 14.2907 3.11062C14.3492 3.13643 14.3784 3.14933 14.4629 3.22991C14.5135 3.2782 14.6059 3.41992 14.6296 3.48572C14.6693 3.59548 14.6693 3.65549 14.6693 3.77549V10.9411C14.6693 11.5469 14.6693 11.8499 14.5784 12.0056C14.486 12.1639 14.3969 12.2376 14.2239 12.2984C14.0538 12.3583 13.7106 12.2923 13.0241 12.1604C12.5435 12.0681 11.9736 12.0003 11.3359 12.0003C9.33594 12.0003 7.33594 13.3337 4.66927 13.3337C3.0368 13.3337 2.15385 13.0838 1.71453 12.89C1.65602 12.8642 1.62677 12.8513 1.54234 12.7707C1.49173 12.7224 1.39935 12.5807 1.37558 12.5149C1.33594 12.4052 1.33594 12.3452 1.33594 12.2252L1.33594 5.05956C1.33594 4.45372 1.33594 4.15079 1.42679 3.99509C1.51921 3.8367 1.60833 3.76307 1.78131 3.7022C1.95136 3.64236 2.29463 3.70831 2.98116 3.84022C3.46168 3.93255 4.03159 4.00032 4.66927 4.00032C6.66927 4.00032 8.66927 2.66699 11.3359 2.66699ZM9.66927 8.00032C9.66927 8.9208 8.92308 9.66699 8.0026 9.66699C7.08213 9.66699 6.33594 8.9208 6.33594 8.00032C6.33594 7.07985 7.08213 6.33366 8.0026 6.33366C8.92308 6.33366 9.66927 7.07985 9.66927 8.00032Z" stroke="#2087E7" stroke-linecap="round" stroke-linejoin="round"/>
</svg>
