<svg width="16" height="16" viewBox="0 0 16 16" fill="none" xmlns="http://www.w3.org/2000/svg">
<path d="M1.33594 6.66634H14.6693V5.46634C14.6693 4.71961 14.6693 4.34624 14.5239 4.06102C14.3961 3.81014 14.1921 3.60616 13.9413 3.47833C13.656 3.33301 13.2827 3.33301 12.5359 3.33301H3.46927C2.72253 3.33301 2.34917 3.33301 2.06395 3.47833C1.81307 3.60616 1.60909 3.81014 1.48126 4.06102C1.33594 4.34624 1.33594 4.7196 1.33594 5.46634V10.533C1.33594 11.2797 1.33594 11.6531 1.48126 11.9383C1.60909 12.1892 1.81307 12.3932 2.06395 12.521C2.34917 12.6663 2.72253 12.6663 3.46927 12.6663H7.33594M9.66927 13.9997L11.0192 13.7297C11.137 13.7061 11.1958 13.6944 11.2507 13.6728C11.2994 13.6537 11.3457 13.629 11.3886 13.599C11.437 13.5653 11.4794 13.5229 11.5643 13.438L14.3359 10.6663C14.7041 10.2982 14.7041 9.7012 14.3359 9.33301C13.9677 8.96482 13.3708 8.96482 13.0026 9.33301L10.231 12.1046C10.1461 12.1895 10.1036 12.232 10.0699 12.2803C10.04 12.3232 10.0152 12.3695 9.99611 12.4182C9.97458 12.4731 9.96281 12.532 9.93927 12.6497L9.66927 13.9997Z" stroke="#8020E7" stroke-linecap="round" stroke-linejoin="round"/>
</svg>
