<svg width="16" height="16" viewBox="0 0 16 16" fill="none" xmlns="http://www.w3.org/2000/svg">
<path d="M14.6693 6.66634H1.33594M14.6693 7.33301V5.46634C14.6693 4.71961 14.6693 4.34624 14.5239 4.06102C14.3961 3.81014 14.1921 3.60616 13.9413 3.47833C13.656 3.33301 13.2827 3.33301 12.5359 3.33301H3.46927C2.72253 3.33301 2.34917 3.33301 2.06395 3.47833C1.81307 3.60616 1.60909 3.81014 1.48126 4.06102C1.33594 4.34624 1.33594 4.7196 1.33594 5.46634V10.533C1.33594 11.2797 1.33594 11.6531 1.48126 11.9383C1.60909 12.1892 1.81307 12.3932 2.06395 12.521C2.34917 12.6663 2.72253 12.6663 3.46927 12.6663H7.66927M12.0026 13.9997C12.0026 13.9997 14.0026 13.0464 14.0026 11.6165V9.94827L12.5442 9.42714C12.1938 9.30163 11.8106 9.30163 11.4602 9.42714L10.0026 9.94827V11.6165C10.0026 13.0464 12.0026 13.9997 12.0026 13.9997Z" stroke="currentColor" stroke-linecap="round" stroke-linejoin="round"/>
</svg>
