<svg width="16" height="16" viewBox="0 0 16 16" fill="none" xmlns="http://www.w3.org/2000/svg">
<path d="M14.6693 6.66634H1.33594M7.33594 9.33301H4.0026M1.33594 5.46634L1.33594 10.533C1.33594 11.2797 1.33594 11.6531 1.48126 11.9383C1.60909 12.1892 1.81307 12.3932 2.06395 12.521C2.34917 12.6663 2.72253 12.6663 3.46927 12.6663L12.5359 12.6663C13.2827 12.6663 13.656 12.6663 13.9413 12.521C14.1921 12.3932 14.3961 12.1892 14.5239 11.9383C14.6693 11.6531 14.6693 11.2797 14.6693 10.533V5.46634C14.6693 4.71961 14.6693 4.34624 14.5239 4.06102C14.3961 3.81014 14.1921 3.60616 13.9413 3.47833C13.656 3.33301 13.2827 3.33301 12.5359 3.33301L3.46927 3.33301C2.72253 3.33301 2.34917 3.33301 2.06395 3.47833C1.81307 3.60616 1.60909 3.81014 1.48126 4.06102C1.33594 4.34624 1.33594 4.7196 1.33594 5.46634Z" stroke="currentColor" stroke-linecap="round" stroke-linejoin="round"/>
</svg>
