<svg width="16" height="16" viewBox="0 0 16 16" fill="none" xmlns="http://www.w3.org/2000/svg">
<path d="M6.0026 12.333H10.0026M4.4026 1.33301H11.6026C11.976 1.33301 12.1627 1.33301 12.3053 1.40567C12.4307 1.46959 12.5327 1.57157 12.5966 1.69701C12.6693 1.83962 12.6693 2.02631 12.6693 2.39967V3.78269C12.6693 4.10881 12.6693 4.27187 12.6324 4.42532C12.5998 4.56137 12.5459 4.69142 12.4728 4.81072C12.3903 4.94528 12.275 5.06058 12.0444 5.29118L10.0902 7.24543C9.82617 7.50944 9.69417 7.64144 9.64471 7.79366C9.6012 7.92756 9.6012 8.07179 9.64471 8.20569C9.69417 8.35791 9.82617 8.48991 10.0902 8.75392L12.0444 10.7082C12.275 10.9388 12.3903 11.0541 12.4728 11.1886C12.5459 11.3079 12.5998 11.438 12.6324 11.574C12.6693 11.7275 12.6693 11.8905 12.6693 12.2167V13.5997C12.6693 13.973 12.6693 14.1597 12.5966 14.3023C12.5327 14.4278 12.4307 14.5298 12.3053 14.5937C12.1627 14.6663 11.976 14.6663 11.6026 14.6663H4.4026C4.02924 14.6663 3.84255 14.6663 3.69994 14.5937C3.5745 14.5298 3.47252 14.4278 3.4086 14.3023C3.33594 14.1597 3.33594 13.973 3.33594 13.5997V12.2167C3.33594 11.8905 3.33594 11.7275 3.37278 11.574C3.40544 11.438 3.45931 11.3079 3.53242 11.1886C3.61487 11.0541 3.73017 10.9388 3.96078 10.7082L5.91502 8.75392C6.17904 8.48991 6.31104 8.35791 6.3605 8.20569C6.404 8.07179 6.404 7.92756 6.3605 7.79366C6.31104 7.64145 6.17903 7.50943 5.91502 7.24543L3.96078 5.29118C3.73018 5.06058 3.61487 4.94528 3.53242 4.81072C3.45931 4.69142 3.40544 4.56137 3.37278 4.42532C3.33594 4.27187 3.33594 4.10881 3.33594 3.78269V2.39967C3.33594 2.02631 3.33594 1.83962 3.4086 1.69701C3.47252 1.57157 3.5745 1.46959 3.69994 1.40567C3.84255 1.33301 4.02924 1.33301 4.4026 1.33301Z" stroke="#E78020" stroke-linecap="round" stroke-linejoin="round"/>
</svg>
